<?xml version="1.0" encoding="utf-8"?>
<!-- Generator: Adobe Illustrator 16.0.0, SVG Export Plug-In . SVG Version: 6.00 Build 0)  -->
<!DOCTYPE svg PUBLIC "-//W3C//DTD SVG 1.1//EN" "http://www.w3.org/Graphics/SVG/1.1/DTD/svg11.dtd" [
	<!ENTITY ns_flows "http://ns.adobe.com/Flows/1.0/">
	<!ENTITY ns_extend "http://ns.adobe.com/Extensibility/1.0/">
	<!ENTITY ns_ai "http://ns.adobe.com/AdobeIllustrator/10.0/">
	<!ENTITY ns_graphs "http://ns.adobe.com/Graphs/1.0/">
]>
<svg version="1.1" id="Layer_1" xmlns:x="&ns_extend;" xmlns:i="&ns_ai;" xmlns:graph="&ns_graphs;"
	 xmlns="http://www.w3.org/2000/svg" xmlns:xlink="http://www.w3.org/1999/xlink" xmlns:a="http://ns.adobe.com/AdobeSVGViewerExtensions/3.0/"
	 x="0px" y="0px" width="214px" height="72px" viewBox="0 0 214 72" enable-background="new 0 0 214 72" xml:space="preserve">
<g>
	<path fill-rule="evenodd" clip-rule="evenodd" fill="#AAA8A7" d="M15.727,14.875l12.207,12.202L23.4,10.341l2.01-0.54l8.275,26.223
		l0.197-0.047L27.83,9.181l2.01-0.54l4.531,16.763L38.799,8.77l1.984,0.411l-5.889,26.794l0.195,0.044l8.217-26.218l1.904,0.54
		l-4.428,16.736l12.229-12.202l1.572,1.363L35.975,36.543l0.154,0.145L56.281,18.04l1.366,1.466L45.52,31.817l16.658-4.404
		l0.619,1.776l-26.163,8.375l0.054,0.212l26.756-5.959l0.409,2.007l-16.632,4.428l16.527,4.428l-0.203,2.01l-26.849-5.908
		l-0.062,0.202l26.163,8.332l-0.619,1.78L45.52,44.564l12.128,12.333l-1.366,1.465l-20.16-18.496L35.97,40.01l18.614,20.259
		l-1.572,1.262L40.783,49.326l4.531,16.736l-2.008,0.54l-8.209-26.09l-0.201,0.058l5.988,26.753l-2.086,0.412l-4.428-16.634
		L29.84,67.634l-2.01-0.311l6.053-26.753l-0.201-0.058l-8.17,26.193L23.4,66.164l4.533-16.838L15.727,61.635l-1.699-1.469
		l18.76-20.156l-0.141-0.144L12.252,58.362l-1.16-1.465l12.104-12.333L6.562,48.991l-0.646-1.777l26.229-8.23
		c0,0-0.06-0.193-0.049-0.202c0.004-0.007-26.9,6.011-26.9,6.011L4.758,42.89l16.867-4.638L4.861,33.617l0.334-1.904l26.89,6.057
		l0.06-0.205l-26.33-8.375l0.644-1.776l16.738,4.404L11.092,19.506l1.262-1.466l20.293,18.651l0.151-0.159L14.131,16.238
		L15.727,14.875z"/>
	<g>
		<path fill-rule="evenodd" clip-rule="evenodd" fill="#AAA8A7" d="M73.142,65.521c0,1.074-0.02,1.807-0.077,2.652
			c0.213-0.021,0.47-0.049,0.786-0.049c0.498,0,1.148,0.049,2.104,0.049c1.803,0,3.314-1.388,3.314-3.495
			c0-2.413-1.503-3.113-3.688-3.113c-0.842,0-1.311,0.052-1.731,0.052c-0.316,0-0.573-0.031-0.786-0.052
			c0.058,0.847,0.077,1.581,0.077,2.655V65.521z M74.557,64.029c0-0.518,0-1.687,0.013-1.867c0.295-0.029,0.536-0.047,0.992-0.047
			c1.324,0,2.196,0.974,2.196,2.546c0,1.989-0.91,2.966-2.347,2.966c-0.395,0-0.65-0.018-0.842-0.026
			c-0.013-0.184-0.013-1.353-0.013-1.868V64.029z"/>
		<path fill-rule="evenodd" clip-rule="evenodd" fill="#AAA8A7" d="M80.906,65.521c0,1.074-0.019,1.807-0.078,2.652
			c0.215-0.021,0.472-0.049,2.03-0.049c0.881,0,1.333,0.038,1.676,0.049c-0.016-0.115-0.038-0.213-0.038-0.411
			c0-0.202,0.022-0.297,0.038-0.435c-0.737,0.089-1.472,0.126-2.194,0.126c-0.018-0.383-0.026-0.792-0.026-1.197
			c0-0.41,0.009-0.824,0.009-1.225c0.727,0,1.448,0.031,2.174,0.087c-0.028-0.202-0.048-0.286-0.048-0.392
			c0-0.125,0.009-0.211,0.048-0.432c-0.726,0.039-1.341,0.057-2.174,0.077c0-0.699,0-1.39,0.049-2.088
			c0.288,0,1.435,0.066,2.163,0.115c-0.016-0.144-0.038-0.229-0.038-0.432c0-0.173,0.022-0.285,0.038-0.403
			c-0.26,0.027-1.061,0.052-1.999,0.052c-0.567,0-1.142-0.038-1.707-0.052c0.06,0.847,0.078,1.581,0.078,2.655V65.521z"/>
		<path fill-rule="evenodd" clip-rule="evenodd" fill="#AAA8A7" d="M93.58,65.521c0,1.074-0.021,1.807-0.078,2.652
			c0.21-0.021,0.47-0.049,0.786-0.049s0.573,0.028,0.786,0.049c-0.058-0.846-0.08-1.578-0.08-2.652v-1.301
			c0-1.074,0.022-1.809,0.08-2.655c-0.213,0.021-0.47,0.052-0.786,0.052s-0.576-0.031-0.786-0.052
			C93.56,62.4,93.58,63.14,93.58,64.2c-0.366,0.009-0.769,0.021-1.446,0.021c-0.682,0-1.14-0.012-1.466-0.021
			c0-1.061,0.018-1.8,0.076-2.635c-0.208,0.021-0.47,0.052-0.784,0.052c-0.318,0-0.575-0.031-0.786-0.052
			c0.056,0.847,0.078,1.581,0.078,2.655v1.301c0,1.074-0.022,1.807-0.078,2.652c0.211-0.021,0.468-0.049,0.786-0.049
			c0.314,0,0.576,0.028,0.784,0.049c-0.059-0.846-0.076-1.578-0.076-2.652v-0.549c0.487-0.015,0.979-0.035,1.457-0.035
			c0.487,0,0.966,0.029,1.455,0.035V65.521z"/>
		<path fill-rule="evenodd" clip-rule="evenodd" fill="#AAA8A7" d="M100.021,68.298c1.857,0,2.825-0.919,2.825-3.139
			c0-1.656,0.068-3.026,0.122-3.594c-0.159,0.027-0.312,0.052-0.477,0.052c-0.161,0-0.325-0.024-0.487-0.052
			c0.047,0.882,0.076,1.752,0.076,2.635c0,1.782-0.106,3.438-1.639,3.438c-1.244,0-1.915-0.383-1.915-2.721
			c0-1.11,0.009-2.105,0.133-3.352c-0.257,0.027-0.524,0.052-0.783,0.052c-0.257,0-0.525-0.024-0.786-0.052
			c0.02,0.319,0.04,0.957,0.04,1.975c0,0.689-0.021,1.205-0.021,2.241C97.11,67.58,98.386,68.298,100.021,68.298z"/>
		<path fill-rule="evenodd" clip-rule="evenodd" fill="#AAA8A7" d="M105.735,63.828c0.722,1.441,1.411,2.898,2.09,4.346
			c0.058-0.011,0.124-0.021,0.182-0.021c0.056,0,0.124,0.01,0.182,0.021c0.688-1.482,1.396-2.959,2.116-4.44h0.018
			c0.155,1.481,0.316,3.107,0.386,4.44c0.27-0.026,0.535-0.049,0.792-0.049c0.262,0,0.519,0.022,0.775,0.049
			c-0.239-1.351-0.571-4.403-0.821-6.608c-0.134,0.027-0.268,0.052-0.403,0.052c-0.135,0-0.276-0.024-0.412-0.052
			c-0.689,1.523-1.472,3.151-2.229,4.578c-0.7-1.35-1.515-3.055-2.214-4.578c-0.125,0.027-0.257,0.052-0.384,0.052
			c-0.132,0-0.257-0.024-0.391-0.052c-0.269,2.205-0.585,4.406-0.987,6.608c0.154-0.026,0.298-0.049,0.451-0.049
			c0.144,0,0.297,0.022,0.451,0.049c0.094-1.447,0.18-2.904,0.381-4.346H105.735z"/>
		<path fill-rule="evenodd" clip-rule="evenodd" fill="#AAA8A7" d="M116.605,61.521c-0.124,0.016-0.239,0.044-0.365,0.044
			c-0.122,0-0.241-0.028-0.363-0.044c-0.823,2.181-2.261,5.59-2.729,6.652c0.184-0.021,0.327-0.049,0.478-0.049
			c0.155,0,0.297,0.028,0.452,0.049c0.182-0.659,0.392-1.312,0.649-1.963c0.336-0.012,0.661-0.021,0.998-0.021
			c0.409,0,0.814,0.009,1.224,0.021c0.241,0.65,0.461,1.312,0.662,1.963c0.266-0.021,0.544-0.049,0.815-0.049
			c0.265,0,0.535,0.028,0.841,0.049C118.538,66.613,117.42,63.702,116.605,61.521z M114.977,65.648
			c0.278-0.777,0.575-1.535,0.9-2.281c0.308,0.746,0.573,1.504,0.853,2.281H114.977z"/>
		<path fill-rule="evenodd" clip-rule="evenodd" fill="#AAA8A7" d="M120.741,63.474c0,1.953-0.143,4.424-0.191,4.7
			c0.145-0.026,0.297-0.049,0.441-0.049c0.144,0,0.296,0.022,0.449,0.049c-0.029-0.354-0.058-0.89-0.058-2.422
			c0-0.72,0-1.514,0.018-2.233c1.477,1.55,2.876,3.104,4.185,4.655c0.114-0.026,0.243-0.049,0.376-0.049s0.257,0.022,0.39,0.049
			c0-2.546,0-3.821,0.155-6.608c-0.145,0.027-0.288,0.052-0.432,0.052c-0.145,0-0.286-0.024-0.431-0.052
			c0.067,0.433,0.067,3.037,0.067,4.561c-1.406-1.523-2.779-3.037-4.155-4.561c-0.145,0.027-0.288,0.052-0.433,0.052
			c-0.143,0-0.285-0.024-0.429-0.052C120.7,62.026,120.741,62.61,120.741,63.474z"/>
		<path fill-rule="evenodd" clip-rule="evenodd" fill="#AAA8A7" d="M128.545,65.521c0,1.074-0.021,1.807-0.078,2.652
			c0.21-0.021,0.469-0.049,0.786-0.049c0.316,0,0.573,0.028,0.783,0.049c-0.055-0.846-0.072-1.578-0.072-2.652v-1.301
			c0-1.074,0.018-1.809,0.072-2.655c-0.21,0.021-0.467,0.052-0.783,0.052c-0.317,0-0.576-0.031-0.786-0.052
			c0.058,0.847,0.078,1.581,0.078,2.655V65.521z"/>
		<path fill-rule="evenodd" clip-rule="evenodd" fill="#AAA8A7" d="M135.064,62.858c0.123-0.42,0.189-0.648,0.306-0.944
			c-0.364-0.291-0.882-0.47-1.573-0.47c-1.137,0-2.151,0.727-2.151,2.048c0,2.174,2.852,1.791,2.852,3.234
			c0,0.536-0.372,0.979-1.12,0.979c-0.774,0-1.214-0.48-1.322-1.034h-0.179c-0.066,0.43-0.155,0.777-0.278,1.215
			c0.278,0.211,0.852,0.412,1.54,0.412c1.523,0,2.537-0.881,2.537-2.163c0-2.174-2.909-1.819-2.909-3.236
			c0-0.46,0.412-0.863,0.996-0.863c0.585,0,0.957,0.278,1.158,0.823H135.064z"/>
		<path fill-rule="evenodd" clip-rule="evenodd" fill="#AAA8A7" d="M138.07,63.828c0.717,1.441,1.408,2.898,2.088,4.346
			c0.059-0.011,0.126-0.021,0.184-0.021s0.124,0.01,0.182,0.021c0.688-1.482,1.396-2.959,2.116-4.44h0.018
			c0.152,1.481,0.314,3.107,0.383,4.44c0.268-0.026,0.538-0.049,0.795-0.049c0.262,0,0.519,0.022,0.775,0.049
			c-0.237-1.351-0.574-4.403-0.824-6.608c-0.133,0.027-0.266,0.052-0.398,0.052c-0.138,0-0.278-0.024-0.416-0.052
			c-0.687,1.523-1.473,3.151-2.228,4.578c-0.701-1.35-1.517-3.055-2.214-4.578c-0.124,0.027-0.259,0.052-0.383,0.052
			c-0.133,0-0.259-0.024-0.394-0.052c-0.269,2.205-0.583,4.406-0.985,6.608c0.154-0.026,0.297-0.049,0.451-0.049
			c0.143,0,0.297,0.022,0.448,0.049c0.097-1.447,0.186-2.904,0.385-4.346H138.07z"/>
		<path fill-rule="evenodd" clip-rule="evenodd" fill="#AAA8A7" d="M145.682,64.871c0,2.392,1.629,3.427,3.647,3.427
			c2.137,0,3.658-1.541,3.658-3.436c0-2.31-1.599-3.418-3.626-3.418C147.136,61.444,145.682,62.983,145.682,64.871z M151.42,64.661
			c0,2.085-1.006,3.044-2.157,3.044c-1.071,0-2.01-0.711-2.01-2.747c0-1.648,0.764-2.97,2.076-2.97
			C150.564,61.988,151.42,63.003,151.42,64.661z"/>
		<path fill-rule="evenodd" clip-rule="evenodd" fill="#AAA8A7" d="M162.699,66.987c-0.412,0.43-1.118,0.718-1.733,0.718
			c-1.104,0-2.268-0.777-2.268-2.747c0-2.033,1.155-2.923,2.181-2.923c0.68,0,1.169,0.259,1.646,0.852h0.137
			c0.026-0.325,0.093-0.659,0.222-0.973c-0.443-0.271-1.287-0.47-1.953-0.47c-2.014,0-3.803,1.014-3.803,3.654
			c0,1.812,1.311,3.199,3.53,3.199c0.789,0,1.445-0.15,1.955-0.421c0.028-0.268,0.106-0.549,0.208-0.814L162.699,66.987z"/>
		<path fill-rule="evenodd" clip-rule="evenodd" fill="#AAA8A7" d="M167.651,68.174c0.287-0.021,0.58-0.049,0.871-0.049
			c0.286,0,0.572,0.028,0.859,0.049c-0.699-1.085-1.425-2.174-2.039-3.257c0.95-0.238,1.483-0.832,1.483-1.762
			c0-0.564-0.236-0.984-0.621-1.265c-0.338-0.236-0.688-0.325-1.657-0.325c-0.65,0-1.062,0.052-1.407,0.052
			c-0.317,0-0.574-0.031-0.783-0.052c0.057,0.847,0.075,1.581,0.075,2.655v1.301c0,1.074-0.019,1.807-0.075,2.652
			c0.209-0.021,0.466-0.049,0.783-0.049c0.318,0,0.575,0.028,0.786,0.049c-0.058-0.846-0.078-1.578-0.078-2.652V65.13h0.087
			L167.651,68.174z M167.363,63.367c0,0.901-0.461,1.371-1.302,1.371c-0.066,0-0.135-0.011-0.213-0.021
			c0-0.873,0.009-1.733,0.031-2.602C166.923,62.115,167.363,62.236,167.363,63.367z"/>
		<path fill-rule="evenodd" clip-rule="evenodd" fill="#AAA8A7" d="M170.724,65.521c0,1.074-0.022,1.807-0.078,2.652
			c0.211-0.021,0.468-0.049,0.787-0.049c0.314,0,0.571,0.028,0.785,0.049c-0.06-0.846-0.077-1.578-0.077-2.652v-1.301
			c0-1.074,0.018-1.809,0.077-2.655c-0.214,0.021-0.471,0.052-0.785,0.052c-0.319,0-0.576-0.031-0.787-0.052
			c0.056,0.847,0.078,1.581,0.078,2.655V65.521z"/>
		<path fill-rule="evenodd" clip-rule="evenodd" fill="#AAA8A7" d="M177.241,62.858c0.126-0.42,0.192-0.648,0.308-0.944
			c-0.365-0.291-0.882-0.47-1.569-0.47c-1.143,0-2.156,0.727-2.156,2.048c0,2.174,2.855,1.791,2.855,3.234
			c0,0.536-0.376,0.979-1.124,0.979c-0.772,0-1.214-0.48-1.32-1.034h-0.181c-0.066,0.43-0.153,0.777-0.277,1.215
			c0.277,0.211,0.851,0.412,1.543,0.412c1.521,0,2.535-0.881,2.535-2.163c0-2.174-2.912-1.819-2.912-3.236
			c0-0.46,0.413-0.863,0.997-0.863c0.585,0,0.958,0.278,1.158,0.823H177.241z"/>
		<path fill-rule="evenodd" clip-rule="evenodd" fill="#AAA8A7" d="M180.595,65.521c0,1.074-0.02,1.807-0.077,2.652
			c0.213-0.021,0.47-0.049,0.786-0.049s0.573,0.028,0.785,0.049c-0.057-0.846-0.077-1.578-0.077-2.652v-2.396
			c0-0.362,0-0.705,0.021-0.841c0.382,0,1.187,0.058,1.701,0.127c-0.028-0.146-0.046-0.279-0.046-0.424
			c0-0.144,0.018-0.276,0.046-0.423c-0.812,0.027-1.241,0.052-2.43,0.052c-1.189,0-1.619-0.024-2.49-0.052
			c0.03,0.146,0.048,0.279,0.048,0.423c0,0.145-0.018,0.277-0.048,0.424c0.575-0.069,1.378-0.127,1.753-0.127
			c0.028,0.136,0.028,0.479,0.028,0.841V65.521z"/>
		<path fill-rule="evenodd" clip-rule="evenodd" fill="#AAA8A7" d="M185.229,65.521c0,1.074-0.021,1.807-0.077,2.652
			c0.21-0.021,0.467-0.049,0.785-0.049c0.317,0,0.573,0.028,0.789,0.049c-0.062-0.846-0.08-1.578-0.08-2.652v-1.301
			c0-1.074,0.018-1.809,0.08-2.655c-0.216,0.021-0.472,0.052-0.789,0.052c-0.318,0-0.575-0.031-0.785-0.052
			c0.057,0.847,0.077,1.581,0.077,2.655V65.521z"/>
		<path fill-rule="evenodd" clip-rule="evenodd" fill="#AAA8A7" d="M191.518,61.521c-0.123,0.016-0.236,0.044-0.364,0.044
			c-0.122,0-0.237-0.028-0.364-0.044c-0.823,2.181-2.258,5.59-2.727,6.652c0.181-0.021,0.323-0.049,0.478-0.049
			c0.153,0,0.297,0.028,0.449,0.049c0.185-0.659,0.393-1.312,0.651-1.963c0.334-0.012,0.662-0.021,0.996-0.021
			c0.414,0,0.814,0.009,1.225,0.021c0.241,0.65,0.46,1.312,0.664,1.963c0.266-0.021,0.545-0.049,0.814-0.049
			c0.266,0,0.534,0.028,0.841,0.049C193.452,66.613,192.333,63.702,191.518,61.521z M189.891,65.648
			c0.279-0.777,0.575-1.535,0.898-2.281c0.309,0.746,0.576,1.504,0.855,2.281H189.891z"/>
		<path fill-rule="evenodd" clip-rule="evenodd" fill="#AAA8A7" d="M195.655,63.474c0,1.953-0.142,4.424-0.19,4.7
			c0.143-0.026,0.294-0.049,0.438-0.049c0.144,0,0.297,0.022,0.452,0.049c-0.029-0.354-0.059-0.89-0.059-2.422
			c0-0.72,0-1.514,0.018-2.233c1.475,1.55,2.874,3.104,4.185,4.655c0.118-0.026,0.241-0.049,0.375-0.049s0.259,0.022,0.394,0.049
			c0-2.546,0-3.821,0.152-6.608c-0.146,0.027-0.287,0.052-0.434,0.052c-0.142,0-0.283-0.024-0.43-0.052
			c0.066,0.433,0.066,3.037,0.066,4.561c-1.405-1.523-2.776-3.037-4.153-4.561c-0.144,0.027-0.289,0.052-0.434,0.052
			c-0.142,0-0.286-0.024-0.429-0.052C195.615,62.026,195.655,62.61,195.655,63.474z"/>
		<path fill-rule="evenodd" clip-rule="evenodd" fill="#AAA8A7" d="M202.903,64.871c0,2.392,1.629,3.427,3.648,3.427
			c2.135,0,3.657-1.541,3.657-3.436c0-2.31-1.599-3.418-3.631-3.418C204.357,61.444,202.903,62.983,202.903,64.871z M208.637,64.661
			c0,2.085-1.005,3.044-2.151,3.044c-1.071,0-2.015-0.711-2.015-2.747c0-1.648,0.769-2.97,2.081-2.97
			C207.787,61.988,208.637,63.003,208.637,64.661z"/>
	</g>
	<g>
		<g>
			<path fill-rule="evenodd" clip-rule="evenodd" fill="#AAA8A7" d="M71.661,57.032c0.547-0.104,1.14-0.104,1.39-0.104
				c0.492,0,0.891,0.052,1.36,0.104c0.425-1.267,1.066-2.531,1.487-3.367c0.969-0.033,1.935-0.053,2.851-0.053
				c0.893,0,1.733,0.035,2.577,0.053c0.274,0.513,0.865,1.592,1.585,3.367c0.769-0.104,1.812-0.104,2.628-0.104
				c0.769,0,1.561,0.018,2.329,0.104c-1.534-2.495-4.386-7.279-6.715-11.999c-0.398,0.07-0.818,0.103-1.213,0.103
				c-0.423,0-0.87-0.032-1.291-0.103C76.94,48.4,73.176,54.827,71.661,57.032z M80.706,52.365c-0.69,0.018-1.386,0.051-2.08,0.051
				c-0.669,0-1.337-0.016-2.009-0.051l2.105-3.743L80.706,52.365z"/>
			<path fill-rule="evenodd" clip-rule="evenodd" fill="#AAA8A7" d="M104.662,47.803c0.072-0.358,0.245-1.317,0.719-1.964
				c-1.856-0.617-3.913-0.872-5.97-0.872c-5.997,0-9.766,2.579-9.766,6.186c0,3.4,3.42,6.065,9.493,6.065
				c1.809,0,3.642-0.224,5.3-0.769c0.248-0.752,0.498-1.23,0.722-1.622l-0.426-0.173c-1.311,0.769-2.696,1.338-4.657,1.338
				c-3.841,0-5.919-2.037-5.919-4.908c0-2.699,1.832-4.955,5.624-4.955c1.933,0,3.742,0.651,4.338,1.674H104.662z"/>
			<path fill-rule="evenodd" clip-rule="evenodd" fill="#AAA8A7" d="M107.33,57.032c0.544-0.104,1.14-0.104,1.388-0.104
				c0.494,0,0.892,0.052,1.361,0.104c0.425-1.267,1.069-2.531,1.487-3.367c0.966-0.033,1.936-0.053,2.852-0.053
				c0.893,0,1.733,0.035,2.577,0.053c0.274,0.513,0.865,1.592,1.585,3.367c0.769-0.104,1.812-0.104,2.625-0.104
				c0.771,0,1.561,0.018,2.332,0.104c-1.534-2.495-4.387-7.279-6.715-11.999c-0.398,0.07-0.819,0.103-1.216,0.103
				c-0.42,0-0.867-0.032-1.288-0.103C112.609,48.4,108.844,54.827,107.33,57.032z M116.375,52.365
				c-0.695,0.018-1.39,0.051-2.081,0.051c-0.669,0-1.337-0.016-2.008-0.051l2.104-3.743L116.375,52.365z"/>
			<path fill-rule="evenodd" clip-rule="evenodd" fill="#AAA8A7" d="M127.125,53.647c0,1.127-0.102,2.255-0.248,3.385
				c1.162-0.087,2.626-0.104,3.073-0.104c0.669,0,3.196,0.104,4.062,0.104c6.267,0,9.291-2.82,9.291-6.152
				c0-3.795-3.69-5.709-8.423-5.709c-1.911,0-3.793,0.104-5.701,0.104c-0.766,0-1.536-0.037-2.303-0.104
				c0.173,1.095,0.248,2.205,0.248,3.298V53.647z M131.238,48.708c0-0.582,0.073-1.912,0.073-2.271
				c0.297-0.02,0.718-0.035,1.981-0.035c1.066,0,2.377,0.016,3.671,0.786c1.606,0.976,1.882,2.632,1.882,3.675
				c0,0.631-0.151,2.716-1.736,3.896c-1.165,0.854-2.8,1.042-4.188,1.042c-0.819,0-1.337-0.051-1.634-0.086
				c-0.026-0.43-0.049-0.872-0.049-1.298V48.708z"/>
			<path fill-rule="evenodd" clip-rule="evenodd" fill="#AAA8A7" d="M147.583,53.612c0,0.94-0.1,2.583-0.323,3.42
				c1.388-0.071,2.999-0.14,4.585-0.14c1.711,0,4.014,0.035,5.601,0.14c-0.075-0.309-0.124-0.601-0.124-0.891
				c0-0.239,0.049-0.514,0.124-0.801c-1.709,0.239-4.335,0.255-5.576,0.255c-0.024-0.237-0.05-0.479-0.05-0.735v-3.398
				c2.281,0,3.695,0,5.529,0.135c-0.052-0.257-0.125-0.53-0.125-0.802c0-0.273,0.049-0.548,0.125-0.823
				c-1.908,0.188-3.522,0.188-5.529,0.188v-1.744c0-0.613,0.025-1.211,0.073-1.827c1.637,0,3.99,0.016,5.628,0.222
				c-0.102-0.271-0.124-0.562-0.124-0.854c0-0.273,0.049-0.53,0.124-0.786c-1.735,0.104-3.024,0.14-4.386,0.14
				c-1.538,0-3.595-0.073-5.752-0.14c0.148,0.717,0.225,1.487,0.225,2.258L147.583,53.612z"/>
			<path fill-rule="evenodd" clip-rule="evenodd" fill="#AAA8A7" d="M180.112,47.393c-0.102-0.612-0.197-1.573-0.272-2.222
				c-0.52,0.066-0.895,0.104-1.539,0.104c-0.593,0-1.186-0.018-1.781-0.104c-0.248,0.53-0.396,0.854-0.991,1.828
				c-1.24,2.05-2.578,4.085-3.966,6.104c-1.065-1.523-4.164-6.647-4.706-7.932c-0.472,0.037-1.118,0.104-1.637,0.104
				c-0.496,0-1.314-0.053-1.811-0.104c-0.024,0.668-0.124,1.332-0.27,1.98l-1.71,7.864c-0.15,0.699-0.35,1.348-0.571,2.017
				c0.47-0.053,0.966-0.104,1.389-0.104c0.445,0,0.893,0.033,1.335,0.104c0-0.992,0.126-1.915,0.226-2.806
				c0.2-1.673,0.519-3.364,0.868-5.04c1.162,1.744,2.303,3.504,3.418,5.262c0.892,1.422,1.164,2.019,1.412,2.584
				c0.222-0.038,0.496-0.053,0.917-0.053c0.397,0,0.717,0.035,0.894,0.053c0.37-0.702,0.495-0.924,1.462-2.495
				c1.657-2.684,1.832-2.99,3.542-5.402c0.075,0.601,0.521,3.503,0.62,4.172c0.323,2.052,0.371,2.955,0.398,3.726
				c0.717-0.071,1.288-0.12,2.377-0.12c0.817,0,1.461,0.033,2.254,0.12c-0.372-1.335-0.668-2.701-0.89-4.052L180.112,47.393z"/>
			<path fill-rule="evenodd" clip-rule="evenodd" fill="#AAA8A7" d="M190.785,51.357c0-1.947,0.075-4.238,0.248-6.187
				c-0.348,0.037-1.24,0.104-2.254,0.104c-0.895,0-1.66-0.037-2.329-0.104c0.197,1.693,0.222,3.916,0.222,5.691
				c0,0.818,0,4.664-0.248,6.17c0.768-0.071,1.562-0.104,2.329-0.104c0.818,0,1.487,0.033,2.258,0.104
				C190.785,55.526,190.785,52.98,190.785,51.357z"/>
			<path fill-rule="evenodd" clip-rule="evenodd" fill="#AAA8A7" d="M194.313,57.032c0.545-0.104,1.139-0.104,1.387-0.104
				c0.495,0,0.895,0.052,1.365,0.104c0.418-1.267,1.064-2.531,1.486-3.367c0.965-0.033,1.932-0.053,2.849-0.053
				c0.892,0,1.733,0.035,2.574,0.053c0.275,0.513,0.87,1.592,1.588,3.367c0.768-0.104,1.811-0.104,2.628-0.104
				c0.768,0,1.562,0.018,2.328,0.104c-1.536-2.495-4.387-7.279-6.717-11.999c-0.396,0.07-0.816,0.103-1.212,0.103
				c-0.421,0-0.868-0.032-1.289-0.103C199.592,48.4,195.823,54.827,194.313,57.032z M203.357,52.365
				c-0.692,0.018-1.389,0.051-2.083,0.051c-0.669,0-1.338-0.016-2.006-0.051l2.105-3.743L203.357,52.365z"/>
		</g>
		<g>
			<path fill-rule="evenodd" clip-rule="evenodd" fill="#AAA8A7" d="M73.443,35.903c0,0.751,0,1.981,1.188,3.196
				c1.087,1.11,3.055,1.417,4.983,1.417c1.33,0,2.521-0.19,3.486-0.666c2.563-1.264,2.666-3.332,2.666-5.007
				c0-1.659,0.079-4.906,0.389-6.372c-0.31,0.049-0.778,0.1-1.208,0.1c-0.412,0-0.945-0.033-1.315-0.1
				c0.164,1.229,0.187,1.656,0.187,3.072v2.053c0,1.521-0.022,2.563-0.311,3.4c-0.554,1.62-2.151,2.017-3.219,2.017
				c-1.23,0-2.357-0.496-2.852-1.264c-0.367-0.582-0.571-1.487-0.571-3.437c0-1.47,0.061-4.476,0.267-5.842
				c-0.554,0.084-1.251,0.1-1.887,0.1c-0.554,0-1.191-0.033-1.993-0.1c0.105,0.596,0.189,1.997,0.189,2.971V35.903z"/>
			<path fill-rule="evenodd" clip-rule="evenodd" fill="#AAA8A7" d="M100.063,36.347c-1.722-1.572-6.132-5.691-8.143-7.875
				c-0.387,0.049-0.799,0.1-1.208,0.1c-0.452,0-0.903-0.051-1.373-0.1c0.143,1.211,0.143,2.065,0.143,5.141
				c0,2.82,0,3.571-0.309,6.714c0.393-0.048,0.658-0.099,1.067-0.099c0.37,0,0.739,0.051,1.108,0.099
				c-0.083-0.715-0.247-3.021-0.247-3.79v-4.274l5.251,4.922c2.194,2.153,2.439,2.395,3.095,3.143
				c0.369-0.064,0.762-0.099,1.19-0.099c0.412,0,0.78,0.051,1.209,0.099c-0.163-1.209-0.163-2.459-0.163-3.688
				c0-1.899,0.079-6.701,0.37-8.167c-0.37,0.066-0.737,0.1-1.107,0.1c-0.33,0-0.821-0.033-1.149-0.1
				c0.164,0.868,0.266,3.673,0.266,3.996V36.347z"/>
			<path fill-rule="evenodd" clip-rule="evenodd" fill="#AAA8A7" d="M108.662,34.657c0-1.948,0.062-4.239,0.206-6.186
				c-0.29,0.031-1.025,0.1-1.866,0.1c-0.739,0-1.375-0.033-1.931-0.1c0.164,1.689,0.187,3.912,0.187,5.688
				c0,0.821,0,4.664-0.206,6.167c0.636-0.064,1.293-0.099,1.928-0.099c0.678,0,1.23,0.034,1.864,0.099
				C108.662,38.823,108.662,36.277,108.662,34.657z"/>
			<path fill-rule="evenodd" clip-rule="evenodd" fill="#AAA8A7" d="M118.133,36.674c-1.33-2.686-2.479-5.422-3.505-8.202
				c-0.493,0.049-1.171,0.1-1.947,0.1c-0.72,0-1.438-0.033-2.154-0.1c1.109,1.979,1.23,2.254,4.266,8.8
				c0.472,1.022,0.941,2.065,1.291,3.126c0.35-0.071,0.677-0.102,1.005-0.102c0.411,0,0.842,0.03,1.253,0.102
				c1.599-4.066,3.423-8.082,5.658-11.926c-0.246,0.031-0.677,0.1-1.146,0.1c-0.412,0-0.903-0.051-1.335-0.1
				c-0.409,1.366-0.94,2.696-1.539,4.016L118.133,36.674z"/>
			<path fill-rule="evenodd" clip-rule="evenodd" fill="#AAA8A7" d="M125.402,36.911c0,0.94-0.084,2.581-0.266,3.415
				c1.147-0.064,2.479-0.135,3.79-0.135c1.417,0,3.323,0.036,4.637,0.135c-0.062-0.303-0.103-0.595-0.103-0.886
				c0-0.241,0.04-0.513,0.103-0.803c-1.418,0.238-3.591,0.257-4.613,0.257c-0.023-0.239-0.043-0.48-0.043-0.735v-3.4
				c1.887,0,3.058,0,4.574,0.138c-0.04-0.259-0.104-0.531-0.104-0.807c0-0.27,0.045-0.544,0.104-0.818
				c-1.579,0.188-2.912,0.188-4.574,0.188v-1.742c0-0.616,0.02-1.214,0.062-1.831c1.354,0,3.301,0.017,4.655,0.224
				c-0.084-0.272-0.104-0.562-0.104-0.854c0-0.275,0.043-0.529,0.104-0.784c-1.435,0.1-2.502,0.133-3.631,0.133
				c-1.271,0-2.971-0.066-4.758-0.133c0.122,0.716,0.185,1.483,0.185,2.254L125.402,36.911z"/>
			<path fill-rule="evenodd" clip-rule="evenodd" fill="#AAA8A7" d="M146.385,31.509c0-3.037-3.732-3.037-4.472-3.037
				c-1.268,0-2.561,0.1-3.831,0.1c-0.515,0-1.334-0.033-2.237-0.1c0.166,1.005,0.166,2.595,0.166,5.245
				c0,3.436,0.019,5.04-0.166,6.609c0.514-0.048,1.336-0.099,1.867-0.099c0.593,0,1.25,0.034,1.823,0.099
				c-0.079-0.491-0.079-1.002-0.102-1.518c-0.04-1.268-0.062-2.205-0.062-3.811c0-0.053,0-0.102,0.021-0.102
				c0.04,0,0.062,0.015,0.08,0.033l2.789,3.605c0.757,0.957,1.109,1.641,1.191,1.791c0.779-0.064,1.271-0.099,2.154-0.099
				c0.718,0,1.432,0.018,2.132,0.099l0.06-0.099c-0.409-0.272-1.146-1.11-1.474-1.541l-3.182-4.185
				C144.315,34.383,146.385,33.546,146.385,31.509z M139.412,29.683c0.27-0.035,0.516-0.035,0.781-0.035
				c1.169,0,2.663,0.104,2.663,2.052c0,2.271-2.112,2.271-2.869,2.271c-0.248,0-0.452,0-0.615-0.015L139.412,29.683z"/>
			<path fill-rule="evenodd" clip-rule="evenodd" fill="#AAA8A7" d="M157.281,31.186c0.042-0.427,0.29-1.434,0.678-2.016
				c-0.802-0.361-1.846-0.822-3.792-0.822c-3.098,0-4.983,1.335-4.983,3.692c0,1.882,1.271,2.768,3.137,3.454
				c2.504,0.905,3.222,1.18,3.222,2.134c0,0.872-0.739,1.709-2.464,1.709c-1.229,0-2.788-0.461-3.117-1.999h-0.512
				c0,0.6-0.187,1.676-0.429,2.357c0.654,0.308,1.841,0.838,3.913,0.838c3.549,0,5.455-1.672,5.455-3.895
				c0-0.667-0.142-1.351-0.613-1.931c-0.556-0.702-1.375-1.111-1.971-1.314c-3.035-1.01-3.956-1.317-3.956-2.394
				c0-1.452,1.906-1.487,2.318-1.487c1.064,0,2.275,0.374,2.665,1.673H157.281z"/>
			<path fill-rule="evenodd" clip-rule="evenodd" fill="#AAA8A7" d="M164.525,34.657c0-1.948,0.062-4.239,0.203-6.186
				c-0.285,0.031-1.027,0.1-1.863,0.1c-0.739,0-1.375-0.033-1.931-0.1c0.163,1.689,0.186,3.912,0.186,5.688
				c0,0.821,0,4.664-0.206,6.167c0.636-0.064,1.293-0.099,1.929-0.099c0.678,0,1.23,0.034,1.863,0.099
				C164.525,38.823,164.525,36.277,164.525,34.657z"/>
			<path fill-rule="evenodd" clip-rule="evenodd" fill="#AAA8A7" d="M167.784,36.946c0,1.127-0.082,2.253-0.206,3.38
				c0.965-0.081,2.171-0.099,2.543-0.099c0.554,0,2.644,0.099,3.365,0.099c5.188,0,7.687-2.815,7.687-6.149
				c0-3.792-3.056-5.705-6.969-5.705c-1.581,0-3.14,0.1-4.721,0.1c-0.635,0-1.27-0.033-1.905-0.1
				c0.144,1.091,0.206,2.201,0.206,3.294V36.946z M171.188,32.007c0-0.582,0.062-1.914,0.062-2.273
				c0.243-0.018,0.593-0.033,1.638-0.033c0.881,0,1.971,0.016,3.037,0.784c1.333,0.976,1.559,2.635,1.559,3.675
				c0,0.633-0.124,2.718-1.438,3.896c-0.961,0.856-2.315,1.044-3.463,1.044c-0.677,0-1.106-0.052-1.354-0.086
				c-0.021-0.427-0.04-0.869-0.04-1.298V32.007z"/>
			<path fill-rule="evenodd" clip-rule="evenodd" fill="#AAA8A7" d="M181.199,40.326c0.452-0.099,0.943-0.099,1.149-0.099
				c0.409,0,0.737,0.051,1.126,0.099c0.35-1.262,0.882-2.525,1.231-3.362c0.799-0.035,1.601-0.053,2.36-0.053
				c0.736,0,1.434,0.035,2.134,0.053c0.224,0.511,0.715,1.588,1.311,3.362c0.635-0.099,1.496-0.099,2.174-0.099
				c0.636,0,1.293,0.018,1.926,0.099c-1.271-2.492-3.626-7.276-5.557-11.992c-0.327,0.066-0.677,0.103-1.005,0.103
				c-0.348,0-0.718-0.036-1.067-0.103C185.569,31.699,182.452,38.126,181.199,40.326z M188.684,35.664
				c-0.572,0.016-1.146,0.051-1.72,0.051c-0.558,0-1.106-0.015-1.662-0.051l1.742-3.743L188.684,35.664z"/>
			<path fill-rule="evenodd" clip-rule="evenodd" fill="#AAA8A7" d="M196.403,36.946c0,1.127-0.084,2.253-0.205,3.38
				c0.963-0.081,2.171-0.099,2.543-0.099c0.554,0,2.644,0.099,3.363,0.099c5.187,0,7.688-2.815,7.688-6.149
				c0-3.792-3.056-5.705-6.974-5.705c-1.576,0-3.135,0.1-4.716,0.1c-0.635,0-1.271-0.033-1.905-0.1
				c0.144,1.091,0.205,2.201,0.205,3.294V36.946z M199.809,32.007c0-0.582,0.06-1.914,0.06-2.273
				c0.245-0.018,0.596-0.033,1.641-0.033c0.881,0,1.97,0.016,3.037,0.784c1.331,0.976,1.554,2.635,1.554,3.675
				c0,0.633-0.119,2.718-1.434,3.896c-0.961,0.856-2.315,1.044-3.463,1.044c-0.677,0-1.107-0.052-1.354-0.086
				c-0.021-0.427-0.04-0.869-0.04-1.298V32.007z"/>
		</g>
	</g>
</g>
</svg>
